<svg height='100px' width='100px'  fill="#ffffff" xmlns="http://www.w3.org/2000/svg" xmlns:xlink="http://www.w3.org/1999/xlink" version="1.1" x="0px" y="0px" viewBox="206 206 100 100" enable-background="new 206 206 100 100" xml:space="preserve"><g><path d="M297.807,213.04h-83.614c-2.969,0-5.386,2.416-5.386,5.386v61.265c0,2.97,2.417,5.387,5.386,5.387h32.554l-2.527,12.26   h-7.359c-0.448,0-0.811,0.362-0.811,0.81c0,0.449,0.362,0.812,0.811,0.812h8.02h22.238c0.002,0,0.004,0,0.004,0h8.016   c0.448,0,0.812-0.362,0.812-0.812c0-0.447-0.363-0.81-0.812-0.81h-7.358l-2.527-12.26h32.554c2.971,0,5.387-2.417,5.387-5.387   v-61.265C303.193,215.456,300.777,213.04,297.807,213.04z M266.124,297.338h-20.249l2.526-12.26h15.195L266.124,297.338z    M301.571,279.691c0,2.076-1.688,3.766-3.764,3.766h-83.614c-2.076,0-3.764-1.689-3.764-3.766v-61.265   c0-2.076,1.688-3.765,3.764-3.765h83.614c2.075,0,3.764,1.689,3.764,3.765V279.691z"></path><path d="M297.701,218.099h-83.402c-0.448,0-0.811,0.363-0.811,0.812v56.027c0,0.447,0.362,0.81,0.811,0.81h83.402   c0.447,0,0.811-0.362,0.811-0.81v-56.027C298.512,218.463,298.149,218.099,297.701,218.099z M296.89,274.127h-81.78v-54.406h81.78   V274.127z"></path><path d="M261.768,278.682h-11.536c-0.448,0-0.811,0.363-0.811,0.811s0.363,0.812,0.811,0.812h11.536   c0.448,0,0.812-0.364,0.812-0.812S262.216,278.682,261.768,278.682z"></path><path d="M236.255,246.928c0.141,0.141,0.328,0.225,0.525,0.236l5.743,0.34l13.027,13.028l0.34,5.743   c0.012,0.197,0.096,0.385,0.236,0.525l4.618,4.617c0.152,0.152,0.358,0.237,0.574,0.237c0.215,0,0.421-0.085,0.572-0.237   c11.448-11.447,9.352-20.267,7.6-23.943c4.231-5.164,7.314-10.172,9.2-14.957c2.312-5.873,1.887-9.192,1.867-9.33   c-0.05-0.359-0.332-0.641-0.691-0.691c-0.019-0.002-0.101-0.013-0.239-0.022h-0.001c-0.034-0.003-0.072-0.005-0.113-0.007   c-0.003,0-0.005,0-0.007,0c-0.041-0.002-0.084-0.004-0.132-0.006c-0.004,0-0.008,0-0.011,0c-0.051-0.002-0.103-0.003-0.16-0.004   c-0.001,0-0.001,0-0.002,0c-0.129-0.002-0.275-0.002-0.44,0.001c-0.015,0-0.027,0-0.042,0.001   c-0.085,0.002-0.173,0.005-0.268,0.009c-0.008,0-0.015,0-0.022,0.001c-0.101,0.005-0.206,0.011-0.316,0.018   c-0.02,0.001-0.041,0.003-0.062,0.004c-0.093,0.007-0.19,0.015-0.292,0.023c-0.023,0.003-0.046,0.004-0.07,0.007   c-0.119,0.011-0.243,0.024-0.371,0.039c-0.023,0.002-0.048,0.005-0.071,0.009c-0.107,0.013-0.219,0.027-0.332,0.042   c-0.037,0.005-0.073,0.01-0.111,0.016c-0.138,0.02-0.279,0.041-0.426,0.065c-0.018,0.003-0.038,0.007-0.057,0.01   c-0.131,0.021-0.263,0.046-0.398,0.071c-0.048,0.009-0.096,0.018-0.145,0.028c-0.133,0.025-0.27,0.053-0.409,0.083   c-0.029,0.006-0.057,0.012-0.086,0.018c-0.161,0.035-0.327,0.073-0.497,0.113c-0.056,0.013-0.111,0.027-0.167,0.041   c-0.135,0.033-0.271,0.067-0.409,0.103c-0.051,0.013-0.102,0.025-0.152,0.039c-0.18,0.048-0.361,0.099-0.549,0.152   c-0.058,0.017-0.117,0.034-0.176,0.052c-0.145,0.042-0.291,0.086-0.44,0.133c-0.064,0.02-0.129,0.04-0.194,0.06   c-0.197,0.063-0.398,0.129-0.604,0.199c-0.051,0.018-0.104,0.037-0.155,0.054c-0.166,0.058-0.334,0.117-0.504,0.179   c-0.075,0.027-0.148,0.054-0.225,0.082c-0.198,0.074-0.399,0.15-0.604,0.23c-0.023,0.009-0.046,0.018-0.069,0.027   c-0.001,0-0.002,0.001-0.003,0.001c-4.783,1.886-9.79,4.968-14.953,9.198c-3.676-1.752-12.497-3.848-23.944,7.599   c-0.317,0.317-0.317,0.83,0,1.146L236.255,246.928z M253.188,255.877c0,0,0-0.001-0.001-0.001l-6.006-6.006c0,0,0,0,0,0   l-4.597-4.598c-0.251-0.251-0.251-0.661,0-0.913l1.014-1.013c0.123-0.123,0.285-0.19,0.458-0.19s0.334,0.067,0.455,0.188   l15.203,15.201c0.251,0.252,0.25,0.662-0.001,0.914l-1.014,1.013c-0.244,0.245-0.67,0.245-0.913,0.002L253.188,255.877z    M261.314,269.695l-3.822-3.822l-0.226-3.812c0.301,0.144,0.631,0.223,0.975,0.223c0.605,0,1.175-0.237,1.604-0.665l1.014-1.014   c0.884-0.885,0.885-2.322,0.001-3.206l-0.315-0.315l2.249-2.251c2.01-2.009,3.855-3.999,5.537-5.969   C269.769,252.459,270.758,259.927,261.314,269.695z M271.843,225.603c0.037-0.013,0.072-0.026,0.108-0.039   c0.203-0.074,0.404-0.146,0.599-0.212c0.015-0.005,0.026-0.009,0.04-0.013c3.174-1.08,5.359-1.253,6.386-1.26   c-0.006,1.041-0.183,3.27-1.3,6.507c-0.016,0.046-0.033,0.094-0.05,0.14c-0.06,0.172-0.121,0.345-0.187,0.522   c-0.002,0.006-0.004,0.012-0.006,0.017c-1.335-0.386-2.55-1.104-3.544-2.099c-0.995-0.995-1.713-2.209-2.099-3.543   C271.808,225.616,271.825,225.609,271.843,225.603z M270.28,226.223c0.472,1.538,1.312,2.938,2.463,4.09   c1.152,1.152,2.553,1.992,4.09,2.464c-2.776,6.575-7.882,13.604-15.187,20.909l-2.25,2.251l-12.277-12.276l2.25-2.25   C256.674,234.105,263.703,229.001,270.28,226.223z M254.193,234.727c-1.969,1.682-3.96,3.528-5.97,5.537l-2.25,2.25l-0.316-0.316   c-0.428-0.428-0.997-0.663-1.602-0.663s-1.175,0.235-1.604,0.664l-1.014,1.014c-0.696,0.697-0.841,1.736-0.441,2.579l-3.812-0.226   l-3.823-3.822C243.129,232.298,250.597,233.286,254.193,234.727z"></path><path d="M266.219,240.931c2.259,0,4.095-1.837,4.095-4.095s-1.836-4.095-4.095-4.095c-2.258,0-4.095,1.837-4.095,4.095   S263.961,240.931,266.219,240.931z M266.219,234.363c1.364,0,2.474,1.11,2.474,2.474c0,1.364-1.109,2.474-2.474,2.474   c-1.363,0-2.474-1.109-2.474-2.474C263.745,235.472,264.856,234.363,266.219,234.363z"></path><path d="M239.652,264.551l7.961-7.961c0.316-0.316,0.316-0.83,0-1.146s-0.83-0.316-1.146,0l-7.961,7.96   c-0.316,0.316-0.316,0.83,0,1.146c0.158,0.158,0.366,0.237,0.574,0.237C239.286,264.788,239.493,264.709,239.652,264.551z"></path><path d="M250.482,258.312c-0.316-0.316-0.83-0.316-1.146,0l-10.54,10.54c-0.317,0.316-0.317,0.829,0,1.146   c0.158,0.158,0.365,0.238,0.573,0.238s0.415-0.08,0.574-0.238l10.539-10.539C250.798,259.142,250.798,258.629,250.482,258.312z"></path><path d="M252.204,261.181l-6.952,6.951c-0.316,0.317-0.316,0.83,0,1.146c0.158,0.159,0.366,0.237,0.574,0.237   c0.208,0,0.415-0.078,0.573-0.237l6.951-6.951c0.317-0.316,0.317-0.83,0-1.146C253.034,260.865,252.521,260.865,252.204,261.181z"></path><path d="M234.923,257.802l6.952-6.951c0.316-0.317,0.316-0.83,0-1.146s-0.83-0.316-1.146,0l-6.952,6.951   c-0.316,0.316-0.316,0.83,0,1.146c0.159,0.159,0.366,0.237,0.574,0.237C234.557,258.04,234.764,257.962,234.923,257.802z"></path><path d="M244.744,252.574c-0.316-0.316-0.83-0.316-1.147,0l-10.539,10.539c-0.317,0.316-0.317,0.831,0,1.146   c0.158,0.158,0.365,0.237,0.573,0.237c0.207,0,0.415-0.079,0.573-0.237l10.54-10.539   C245.06,253.405,245.06,252.891,244.744,252.574z"></path></g></svg>